<?xml version="1.0" encoding="iso-8859-1"?>
<!-- Uploaded to: SVG Repo, www.svgrepo.com, Generator: SVG Repo Mixer Tools -->
<!DOCTYPE svg PUBLIC "-//W3C//DTD SVG 1.1//EN" "http://www.w3.org/Graphics/SVG/1.1/DTD/svg11.dtd">
<svg fill="#000000" version="1.1" id="Capa_1" xmlns="http://www.w3.org/2000/svg" xmlns:xlink="http://www.w3.org/1999/xlink" 
	 width="800px" height="800px" viewBox="0 0 187.129 187.129"
	 xml:space="preserve">
<g>
	<path d="M135.667,115.064c-6.274-4.796-12.758-9.263-19.341-13.572c2.409-4.922,4.395-9.358,5.886-13.1
		c0.658,0.352,1.417,0.592,2.287,0.67c36.146,3.228,68.088-43.565,58.979-77.506c0.11-2.161,0.098-4.182-0.075-5.986
		c-0.176-1.824-1.603-3.174-3.45-2.924c-1.373-2.306-5.151-3.577-7.43-1.83c-14.371,11.017-26.453,26.116-38.29,39.689
		c-9.318,10.685-24.326,25.348-28.023,40.062c-3.471,2.627-6.9,5.313-10.257,8.095c-11.293-6.938-22.618-13.827-33.526-21.374
		c5.96-7.065,7.555-16.578,3.139-24.953C59.262,30.381,40.659,23.243,27.975,23c-5.428-0.104-5.899,7.315-1.219,9.004
		c10.259,3.703,23.471,4.416,29.913,14.706c1.642,2.623,1.963,5.376,1.357,8.007c-4.183-3.662-9.908-5.899-14.74-8.499
		c-5.755-3.098-11.633-6.123-17.831-8.23c-4.276-1.454-5.133,5.298-1.918,6.28c5.279,2.891,10.606,5.655,15.798,8.71
		c4.759,2.801,9.854,6.752,15.335,8.03c-0.275,0.324-0.536,0.656-0.835,0.965c-1.357,1.403-2.786,2.507-4.245,3.465
		c-0.141-0.42-0.337-0.839-0.652-1.242c-2.029-2.601-5.702-3.957-8.534-5.516c-3.721-2.049-7.462-4.057-11.135-6.194
		c-2.498-1.454-10.984-9.734-13.991-7.116c-5.624,4.897,17.564,18.957,27.129,23.166c-12.145,2.617-25.516-5.737-33.132-15.795
		c-2.913-3.848-9.081-0.584-6.631,3.876C9.165,68.49,19.506,76.818,33.071,78.621c6.673,0.887,13.71-0.587,19.771-3.764
		c8.765,9.606,16.852,19.784,24.895,30.002c-6.161,5.831-12.163,11.815-17.988,17.909c-10.763,11.259-39.637,39.883-27.093,57.71
		c15.234,21.648,45.142-13.499,66.863-48.681c3.077,3.598,6.197,7.158,9.439,10.618c15.33,16.36,36.003,35.979,60.342,31.926
		c1.289-0.215,2.114-1.618,2.147-2.819C172.107,147.532,153.456,128.664,135.667,115.064z M145.222,46.428
		c9.117-10.853,18.706-21.225,28.553-31.388c1.76,5.322,1.937,11.12,0.866,16.986c-2.739,8.805-6.998,17.955-12.295,25.73
		c-7.967,9.973-18.662,17.642-29.404,19.704c-3.224-0.186-6.497-1.124-9.782-3.047c0.421-0.394,0.848-0.785,1.269-1.18
		c0.73-0.684,0.801-1.583,0.498-2.354c5.905-5.327,10.731-11.855,15.265-18.686C141.95,50.222,143.653,48.295,145.222,46.428z
		 M126.662,119.505c-0.528-0.405-1.053-0.817-1.581-1.224c0.153-0.545,0.2-1.115,0.113-1.685c0.716,0.482,1.436,0.983,2.154,1.479
		C127.044,118.51,126.815,118.995,126.662,119.505z"/>
</g>
</svg>